<?xml version="1.0" encoding="utf-8"?>
<!-- Generator: Adobe Illustrator 24.1.1, SVG Export Plug-In . SVG Version: 6.00 Build 0)  -->
<svg version="1.1" id="Layer_1" xmlns="http://www.w3.org/2000/svg" xmlns:xlink="http://www.w3.org/1999/xlink" x="0px" y="0px"
	 viewBox="0 0 512 512" style="enable-background:new 0 0 512 512;" xml:space="preserve">
<g>
	<path d="M332.16,295.72l-5.25-29.47l127.72-127.72L373.55,57.4L245.77,185.12l-29.44-5.22c-26.14-4.69-53.05-2.06-77.78,7.64
		l185.97,185.94C334.22,348.75,336.85,321.86,332.16,295.72z M211.28,341.36L48.98,503.6c-11.19,11.19-29.36,11.19-40.55,0
		c-11.22-11.19-11.22-29.36,0-40.55l162.24-162.24L48.98,179.09c46.42-46.5,112.69-67.3,177.36-55.69L332.91,16.82
		c22.42-22.42,58.75-22.42,81.14-0.03l0.03,0.03l81.11,81.14c22.42,22.42,22.42,58.72,0,81.14L388.6,285.67
		c11.64,64.66-9.19,130.94-55.69,177.38L211.28,341.36z"/>
</g>
</svg>
